HIERARCHY
ROOT Bip001_Pelvis
{
  OFFSET 1.9202 94.1302 -9.65566
  CHANNELS 6 Xposition Yposition Zposition Zrotation Xrotation Yrotation
  JOINT Bip001_Spine
  {
    OFFSET 1.44608e-005 10.4157 -0.0118244
    CHANNELS 3 Zrotation Xrotation Yrotation
    JOINT Bip001_L_Thigh
    {
      OFFSET 11.2582 -10.4157 0.0118432
      CHANNELS 3 Zrotation Xrotation Yrotation
      JOINT Bip001_L_Calf
      {
        OFFSET -0.720717 -44.8687 0.366937
        CHANNELS 3 Zrotation Xrotation Yrotation
        JOINT Bip001_L_Foot
        {
          OFFSET -0.664439 -41.3745 -3.62995
          CHANNELS 3 Zrotation Xrotation Yrotation
          JOINT Bip001_L_Toe0
          {
            OFFSET 0.0541047 -10.4146 13.4033
            CHANNELS 3 Zrotation Xrotation Yrotation
            End Site
            {
              OFFSET -1.04503e-005 0 7.70137
            }
          }
        }
      }
    }
    JOINT Bip001_R_Thigh
    {
      OFFSET -11.2582 -10.4156 0.0118122
      CHANNELS 3 Zrotation Xrotation Yrotation
      JOINT Bip001_R_Calf
      {
        OFFSET 0.72059 -44.8687 0.36676
        CHANNELS 3 Zrotation Xrotation Yrotation
        JOINT Bip001_R_Foot
        {
          OFFSET 0.664321 -41.3745 -3.62979
          CHANNELS 3 Zrotation Xrotation Yrotation
          JOINT Bip001_R_Toe0
          {
            OFFSET -0.05417 -10.4146 13.4033
            CHANNELS 3 Zrotation Xrotation Yrotation
            End Site
            {
              OFFSET -1.04873e-005 0 7.70137
            }
          }
        }
      }
    }
    JOINT Bip001_Spine1
    {
      OFFSET 1.90638e-005 14.8539 1.10727
      CHANNELS 3 Zrotation Xrotation Yrotation
      JOINT Bip001_Spine2
      {
        OFFSET 2.28934e-005 14.7848 -1.7233
        CHANNELS 3 Zrotation Xrotation Yrotation
        JOINT Bip001_Neck
        {
          OFFSET 2.24514e-005 15.6905 -0.498826
          CHANNELS 3 Zrotation Xrotation Yrotation
          JOINT Bip001_L_Clavicle
          {
            OFFSET 6.17691 -0.000591152 0.00852867
            CHANNELS 3 Zrotation Xrotation Yrotation
            JOINT Bip001_L_UpperArm
            {
              OFFSET 11.773 -0.0611878 0.00197697
              CHANNELS 3 Zrotation Xrotation Yrotation
              JOINT Bip001_L_Forearm
              {
                OFFSET 26.4515 0.0817569 -2.19579
                CHANNELS 3 Zrotation Xrotation Yrotation
                JOINT Bip001_L_Hand
                {
                  OFFSET 32.8677 0.156744 1.67112
                  CHANNELS 3 Zrotation Xrotation Yrotation
                  JOINT Bip001_L_Finger0
                  {
                    OFFSET 6.16267 -2.25226 6.01673
                    CHANNELS 3 Zrotation Xrotation Yrotation
                    End Site
                    {
                      OFFSET 4.30498 -1.46663 0.618147
                    }
                  }
                  JOINT Bip001_L_Finger1
                  {
                    OFFSET 11.2957 -0.718375 -0.201963
                    CHANNELS 3 Zrotation Xrotation Yrotation
                    End Site
                    {
                      OFFSET 6.31952 -0.405163 -0.0802302
                    }
                  }
                }
              }
            }
          }
          JOINT Bip001_R_Clavicle
          {
            OFFSET -6.17691 -0.000574027 0.00851165
            CHANNELS 3 Zrotation Xrotation Yrotation
            JOINT Bip001_R_UpperArm
            {
              OFFSET -11.773 -0.0611516 0.00194365
              CHANNELS 3 Zrotation Xrotation Yrotation
              JOINT Bip001_R_Forearm
              {
                OFFSET -26.4514 0.0822335 -2.19736
                CHANNELS 3 Zrotation Xrotation Yrotation
                JOINT Bip001_R_Hand
                {
                  OFFSET -32.8677 0.156816 1.67144
                  CHANNELS 3 Zrotation Xrotation Yrotation
                  JOINT Bip001_R_Finger0
                  {
                    OFFSET -6.1627 -2.25224 6.01673
                    CHANNELS 3 Zrotation Xrotation Yrotation
                    End Site
                    {
                      OFFSET -4.30499 -1.46661 0.618137
                    }
                  }
                  JOINT Bip001_R_Finger1
                  {
                    OFFSET -11.2958 -0.718342 -0.201995
                    CHANNELS 3 Zrotation Xrotation Yrotation
                    End Site
                    {
                      OFFSET -6.31952 -0.405145 -0.080248
                    }
                  }
                }
              }
            }
          }
          JOINT Bip001_Head
          {
            OFFSET 1.11782e-005 11.4912 2.09908
            CHANNELS 3 Zrotation Xrotation Yrotation
            End Site
            {
              OFFSET 2.95144e-005 21.2823 -2.83069e-005
            }
          }
        }
      }
    }
  }
}
MOTION
Frames:	7
Frame Time:	0.0333333
8.73754 95.2274 -4.82268 -3.43542 -1.34178 -72.3454 -1.62206 4.31667 -9.83071 -4.21918 -3.15071 19.5543 0.452082 22.9261 9.89902 -4.01962 -4.20399 42.4451 -1.06793e-007 -2.13318e-007 2.6855e-008 12.5835 -18.0292 23.7676 0.383038 19.1644 10.1781 -3.73688 3.58703 14.9899 4.30472e-007 9.0515e-008 8.12001e-009 2.41307 8.35684 -9.8307 2.46762 8.3359 -9.83744 14.9151 4.52849 -31.6761 -19.6742 -14.2722 19.6828 -53.5162 -14.15 -62.556 -5.50765 6.67808 -97.3634 -9.81589 6.54562 -2.55234 -6.36111e-015 -4.37326e-015 1.39149e-015 -3.18055e-015 -3.8763e-015 2.88238e-015 8.39529 -0.230595 28.1112 43.7627 29.2792 18.1316 4.61475 2.53622 53.6245 -0.0763347 6.90281 2.77778 -0 0 2.38542e-015 -1.32417e-031 -3.18056e-015 -2.38542e-015 5.20284 -25.1102 5.19783 
8.87454 95.3884 -3.23974 -2.86795 -0.85642 -82.2228 -1.39451 4.18293 -9.836 -7.17789 -1.68893 17.7085 0.376526 20.4004 10.3225 -4.75109 -1.94173 42.7672 -1.06793e-007 -2.13318e-007 2.6855e-008 12.7307 -17.027 22.0936 0.326223 16.6334 10.8798 -3.50059 2.30513 7.07771 4.30472e-007 9.0515e-008 8.12001e-009 2.26964 8.05292 -9.1752 2.31412 8.03802 -9.17831 13.8173 5.17474 -29.8031 -18.374 -13.5817 18.4127 -57.4221 -20.496 -67.0895 -5.50966 6.66604 -97.2419 -8.15546 4.93333 -3.11273 -3.18055e-015 -7.95139e-016 2.38542e-015 -3.18055e-015 -3.97569e-015 7.95139e-016 9.02829 -0.895273 26.2595 44.0445 28.2389 15.1503 4.69312 2.66374 55.2687 1.69297 7.99546 2.37674 -3.18055e-015 0 -5.96354e-015 -2.38542e-015 -3.18056e-015 -2.38542e-015 5.42412 -24.4864 5.74221 
8.9771 95.5494 -1.84581 -1.77891 -0.502262 -92.2645 -1.13717 3.92692 -9.82245 -10.0483 -0.831678 15.7024 0.250106 17.2638 10.8507 -5.68407 0.46383 42.1545 -1.06793e-007 -2.13318e-007 2.6855e-008 13.4774 -16.4203 22.6404 0.286371 14.828 11.4835 -3.14489 1.61369 -4.35485 4.30472e-007 9.0515e-008 8.12001e-009 2.02158 7.49165 -8.51928 2.05793 7.48186 -8.51979 12.5845 6.34598 -27.2645 -16.3618 -13.0266 16.5669 -59.6453 -26.6663 -69.5326 -5.52136 6.58907 -96.5197 -3.42446 3.42152 -2.94808 -1.32417e-031 1.59028e-015 4.77083e-015 -1.54487e-031 1.59028e-015 5.56597e-015 10.0503 -2.06466 23.8511 44.7057 26.0893 12.1107 4.69783 2.68017 55.6144 0.55013 9.54102 1.87674 2.38542e-015 0 -6.36111e-015 -7.95139e-016 0 -3.18055e-015 5.25356 -24.3268 6.09643 
8.72198 95.6236 -0.482074 -0.840077 -0.299305 -101.749 -0.866103 3.73499 -9.82342 -12.3775 -0.452422 13.9338 0.101785 15.2686 11.3714 -6.46393 2.16369 42.6271 -1.06793e-007 -2.13318e-007 2.6855e-008 13.8005 -15.5109 21.6755 0.251588 13.6319 11.5942 -2.80698 1.72158 -13.4453 4.30472e-007 9.0515e-008 8.12002e-009 1.87319 7.05395 -8.06849 1.90229 7.0474 -8.06768 11.2778 7.51064 -24.1058 -14.1312 -12.4331 14.4084 -61.2967 -32.7073 -71.0447 -5.53843 6.46335 -95.2534 -0.615637 1.97909 -2.90104 -8.82781e-032 1.59028e-015 3.18055e-015 -0 0 4.77083e-015 11.0068 -3.35056 21.0542 45.4702 22.286 8.59173 4.69695 2.68403 55.7231 0.448783 8.77771 2.73782 1.59028e-015 3.97569e-015 -7.15625e-015 -1.59028e-015 1.59028e-015 -3.18055e-015 5.35262 -24.1452 6.54062 
8.02967 95.3795 0.660126 -0.350765 -0.299131 -110.974 -0.749824 3.63709 -9.71209 -14.0964 -0.592281 14.2145 -0.0187547 15.1973 11.7836 -8.1668 3.43977 37.7292 -1.06793e-007 -2.13318e-007 2.6855e-008 13.2673 -14.0244 18.6092 0.227097 12.6099 12.1805 -2.87282 1.82022 -14.6255 4.30472e-007 9.0515e-008 8.12001e-009 1.76877 6.82283 -7.55333 1.79298 6.81798 -7.55209 10.3472 8.14879 -20.8279 -12.6583 -11.7512 12.0482 -63.022 -38.8165 -72.4838 -5.55338 6.32977 -93.9168 -2.50999 0.281899 -3.01877 6.36111e-015 -3.18055e-015 1.59028e-015 1.76556e-031 -6.36111e-015 1.59028e-015 11.4072 -4.36888 18.102 45.5941 17.16 5.01569 4.70225 2.69477 55.9527 -0.0791206 7.17161 2.61477 3.18055e-015 2.38542e-015 1.98785e-015 3.18055e-015 2.38542e-015 -4.17448e-015 5.54668 -23.4223 6.91801 
7.11511 95.0177 1.72904 0.196974 -0.554842 -120.097 -0.665341 3.56058 -9.52578 -15.6098 -0.833942 14.6573 -0.18701 15.1958 12.2809 -9.54392 5.22376 32.269 -1.06793e-007 -2.13318e-007 2.6855e-008 12.7558 -14.0871 14.2209 0.206219 12.4243 13.0766 -3.33203 1.79448 -5.25936 4.30472e-007 9.0515e-008 8.12001e-009 1.49151 6.64881 -6.91286 1.5113 6.64539 -6.91172 9.37609 8.20207 -17.5092 -11.2469 -10.7019 9.90923 -63.5929 -44.915 -72.9804 -5.5626 6.22688 -92.9297 -3.24265 -1.07861 -3.24756 -3.18055e-015 4.77083e-015 -0 -3.18055e-015 4.77083e-015 -1.59028e-015 11.4504 -4.87521 15.2147 45.9097 11.6915 1.9177 4.65593 2.62294 55.1867 -1.89284 6.35121 2.58664 -3.18055e-015 7.95139e-015 -1.59028e-015 -6.36111e-015 1.59028e-015 -3.18055e-015 5.51167 -22.8369 7.34831 
6.04699 94.529 2.33476 0.375826 -0.367766 -128.856 -0.757223 3.55894 -9.28086 -16.2826 -0.430588 15.0728 -0.34032 15.4079 12.9789 -10.1537 7.60586 24.814 -1.06793e-007 -2.13318e-007 2.6855e-008 13.6291 -14.0543 11.6975 0.214338 13.2928 13.7358 -2.87253 1.84996 10.2615 4.30472e-007 9.0515e-008 8.12002e-009 1.38 6.66123 -6.21902 1.39877 6.65851 -6.21719 7.7918 8.22364 -14.3335 -9.54749 -9.75714 8.04188 -61.8286 -50.6531 -71.1319 -5.56154 6.24004 -93.0396 -1.11484 -2.90058 -2.7616 0 0 -1.59028e-015 -3.18055e-015 -3.18056e-015 -1.59028e-015 12.1995 -5.10338 12.693 46.0668 6.3928 -0.673446 4.55162 2.46783 53.3439 -3.10513 3.78311 3.09487 1.76556e-031 3.18055e-015 -3.18055e-015 -3.18055e-015 6.36111e-015 3.18055e-015 5.61215 -22.2246 7.83936 
